<mxfile host="Electron" modified="2024-05-20T06:44:10.966Z" agent="Mozilla/5.0 (X11; Linux x86_64) AppleWebKit/537.36 (KHTML, like Gecko) draw.io/24.4.0 Chrome/120.0.6099.109 Electron/28.1.0 Safari/537.36" etag="KmmCDS_p94iX1Un9oCwy" version="24.4.0" type="device">
  <diagram name="Page-1" id="OkWnbvSVXBs6wZwt7zQD">
    <mxGraphModel dx="946" dy="581" grid="1" gridSize="10" guides="1" tooltips="1" connect="1" arrows="1" fold="1" page="1" pageScale="1" pageWidth="850" pageHeight="1100" math="0" shadow="0">
      <root>
        <mxCell id="0" />
        <mxCell id="1" parent="0" />
        <mxCell id="wLUPcjS65Iv6JSeXEXH0-4" style="edgeStyle=orthogonalEdgeStyle;rounded=0;orthogonalLoop=1;jettySize=auto;html=1;entryX=0.5;entryY=0;entryDx=0;entryDy=0;" edge="1" parent="1" source="wLUPcjS65Iv6JSeXEXH0-1" target="wLUPcjS65Iv6JSeXEXH0-3">
          <mxGeometry relative="1" as="geometry" />
        </mxCell>
        <mxCell id="wLUPcjS65Iv6JSeXEXH0-6" style="edgeStyle=orthogonalEdgeStyle;rounded=0;orthogonalLoop=1;jettySize=auto;html=1;entryX=0;entryY=0.5;entryDx=0;entryDy=0;" edge="1" parent="1" source="wLUPcjS65Iv6JSeXEXH0-1" target="wLUPcjS65Iv6JSeXEXH0-5">
          <mxGeometry relative="1" as="geometry" />
        </mxCell>
        <mxCell id="wLUPcjS65Iv6JSeXEXH0-1" value="Colorful&lt;div&gt;Pixels&lt;/div&gt;" style="whiteSpace=wrap;html=1;aspect=fixed;" vertex="1" parent="1">
          <mxGeometry x="380" y="390" width="80" height="80" as="geometry" />
        </mxCell>
        <mxCell id="wLUPcjS65Iv6JSeXEXH0-14" style="edgeStyle=orthogonalEdgeStyle;rounded=0;orthogonalLoop=1;jettySize=auto;html=1;entryX=0;entryY=0.5;entryDx=0;entryDy=0;" edge="1" parent="1" source="wLUPcjS65Iv6JSeXEXH0-3" target="wLUPcjS65Iv6JSeXEXH0-8">
          <mxGeometry relative="1" as="geometry">
            <Array as="points">
              <mxPoint x="500" y="550" />
              <mxPoint x="500" y="500" />
            </Array>
          </mxGeometry>
        </mxCell>
        <mxCell id="wLUPcjS65Iv6JSeXEXH0-19" style="edgeStyle=orthogonalEdgeStyle;rounded=0;orthogonalLoop=1;jettySize=auto;html=1;entryX=0;entryY=0.25;entryDx=0;entryDy=0;" edge="1" parent="1" source="wLUPcjS65Iv6JSeXEXH0-3" target="wLUPcjS65Iv6JSeXEXH0-17">
          <mxGeometry relative="1" as="geometry">
            <mxPoint x="420" y="610" as="targetPoint" />
            <Array as="points">
              <mxPoint x="420" y="610" />
            </Array>
          </mxGeometry>
        </mxCell>
        <mxCell id="wLUPcjS65Iv6JSeXEXH0-24" style="edgeStyle=orthogonalEdgeStyle;rounded=0;orthogonalLoop=1;jettySize=auto;html=1;entryX=1;entryY=0.25;entryDx=0;entryDy=0;" edge="1" parent="1" source="wLUPcjS65Iv6JSeXEXH0-3" target="wLUPcjS65Iv6JSeXEXH0-16">
          <mxGeometry relative="1" as="geometry">
            <Array as="points">
              <mxPoint x="420" y="610" />
            </Array>
          </mxGeometry>
        </mxCell>
        <mxCell id="wLUPcjS65Iv6JSeXEXH0-3" value="Project" style="rounded=1;whiteSpace=wrap;html=1;" vertex="1" parent="1">
          <mxGeometry x="360" y="520" width="120" height="60" as="geometry" />
        </mxCell>
        <mxCell id="wLUPcjS65Iv6JSeXEXH0-12" style="edgeStyle=orthogonalEdgeStyle;rounded=0;orthogonalLoop=1;jettySize=auto;html=1;entryX=1;entryY=0.5;entryDx=0;entryDy=0;" edge="1" parent="1" target="wLUPcjS65Iv6JSeXEXH0-9">
          <mxGeometry relative="1" as="geometry">
            <mxPoint x="580" y="460" as="sourcePoint" />
            <mxPoint x="570" y="550" as="targetPoint" />
            <Array as="points">
              <mxPoint x="580" y="550" />
            </Array>
          </mxGeometry>
        </mxCell>
        <mxCell id="wLUPcjS65Iv6JSeXEXH0-5" value="IO" style="rounded=1;whiteSpace=wrap;html=1;" vertex="1" parent="1">
          <mxGeometry x="520" y="400" width="120" height="60" as="geometry" />
        </mxCell>
        <mxCell id="wLUPcjS65Iv6JSeXEXH0-15" style="edgeStyle=orthogonalEdgeStyle;rounded=0;orthogonalLoop=1;jettySize=auto;html=1;exitX=1.075;exitY=0.465;exitDx=0;exitDy=0;exitPerimeter=0;" edge="1" parent="1" source="wLUPcjS65Iv6JSeXEXH0-8">
          <mxGeometry relative="1" as="geometry">
            <mxPoint x="580" y="460" as="targetPoint" />
            <mxPoint x="560" y="500" as="sourcePoint" />
          </mxGeometry>
        </mxCell>
        <mxCell id="wLUPcjS65Iv6JSeXEXH0-8" value="Save" style="ellipse;whiteSpace=wrap;html=1;aspect=fixed;" vertex="1" parent="1">
          <mxGeometry x="520" y="480" width="40" height="40" as="geometry" />
        </mxCell>
        <mxCell id="wLUPcjS65Iv6JSeXEXH0-11" style="edgeStyle=orthogonalEdgeStyle;rounded=0;orthogonalLoop=1;jettySize=auto;html=1;" edge="1" parent="1" source="wLUPcjS65Iv6JSeXEXH0-9">
          <mxGeometry relative="1" as="geometry">
            <mxPoint x="480" y="550" as="targetPoint" />
          </mxGeometry>
        </mxCell>
        <mxCell id="wLUPcjS65Iv6JSeXEXH0-9" value="Load" style="ellipse;whiteSpace=wrap;html=1;aspect=fixed;" vertex="1" parent="1">
          <mxGeometry x="520" y="530" width="40" height="40" as="geometry" />
        </mxCell>
        <mxCell id="wLUPcjS65Iv6JSeXEXH0-23" style="edgeStyle=orthogonalEdgeStyle;rounded=0;orthogonalLoop=1;jettySize=auto;html=1;entryX=0;entryY=0.5;entryDx=0;entryDy=0;" edge="1" parent="1" source="wLUPcjS65Iv6JSeXEXH0-16" target="wLUPcjS65Iv6JSeXEXH0-17">
          <mxGeometry relative="1" as="geometry" />
        </mxCell>
        <mxCell id="wLUPcjS65Iv6JSeXEXH0-16" value="Canvas" style="rounded=1;whiteSpace=wrap;html=1;" vertex="1" parent="1">
          <mxGeometry x="350" y="600" width="50" height="40" as="geometry" />
        </mxCell>
        <mxCell id="wLUPcjS65Iv6JSeXEXH0-21" style="edgeStyle=orthogonalEdgeStyle;rounded=0;orthogonalLoop=1;jettySize=auto;html=1;entryX=1;entryY=0.5;entryDx=0;entryDy=0;" edge="1" parent="1" source="wLUPcjS65Iv6JSeXEXH0-17" target="wLUPcjS65Iv6JSeXEXH0-16">
          <mxGeometry relative="1" as="geometry" />
        </mxCell>
        <mxCell id="wLUPcjS65Iv6JSeXEXH0-17" value="Layer" style="rounded=1;whiteSpace=wrap;html=1;" vertex="1" parent="1">
          <mxGeometry x="440" y="600" width="50" height="40" as="geometry" />
        </mxCell>
        <mxCell id="wLUPcjS65Iv6JSeXEXH0-32" style="edgeStyle=orthogonalEdgeStyle;rounded=0;orthogonalLoop=1;jettySize=auto;html=1;entryX=-0.063;entryY=0.483;entryDx=0;entryDy=0;entryPerimeter=0;" edge="1" parent="1">
          <mxGeometry relative="1" as="geometry">
            <mxPoint x="350" y="619.3199999999999" as="targetPoint" />
            <mxPoint x="308.15" y="570" as="sourcePoint" />
            <Array as="points">
              <mxPoint x="300" y="570" />
              <mxPoint x="300" y="619" />
            </Array>
          </mxGeometry>
        </mxCell>
        <mxCell id="wLUPcjS65Iv6JSeXEXH0-26" value="Tools" style="rounded=1;whiteSpace=wrap;html=1;" vertex="1" parent="1">
          <mxGeometry x="280" y="530" width="50" height="40" as="geometry" />
        </mxCell>
        <mxCell id="wLUPcjS65Iv6JSeXEXH0-28" style="edgeStyle=orthogonalEdgeStyle;rounded=0;orthogonalLoop=1;jettySize=auto;html=1;entryX=0.5;entryY=0;entryDx=0;entryDy=0;" edge="1" parent="1" source="wLUPcjS65Iv6JSeXEXH0-27" target="wLUPcjS65Iv6JSeXEXH0-26">
          <mxGeometry relative="1" as="geometry" />
        </mxCell>
        <mxCell id="wLUPcjS65Iv6JSeXEXH0-27" value="Tool&lt;div&gt;System&lt;/div&gt;" style="rounded=1;whiteSpace=wrap;html=1;" vertex="1" parent="1">
          <mxGeometry x="280" y="470" width="50" height="40" as="geometry" />
        </mxCell>
        <mxCell id="wLUPcjS65Iv6JSeXEXH0-31" style="edgeStyle=orthogonalEdgeStyle;rounded=0;orthogonalLoop=1;jettySize=auto;html=1;entryX=1.041;entryY=0.483;entryDx=0;entryDy=0;entryPerimeter=0;exitX=0;exitY=0.5;exitDx=0;exitDy=0;" edge="1" parent="1" source="wLUPcjS65Iv6JSeXEXH0-3">
          <mxGeometry relative="1" as="geometry">
            <mxPoint x="357.95" y="550" as="sourcePoint" />
            <mxPoint x="329.99999999999994" y="550.3199999999999" as="targetPoint" />
          </mxGeometry>
        </mxCell>
        <mxCell id="wLUPcjS65Iv6JSeXEXH0-34" style="edgeStyle=orthogonalEdgeStyle;rounded=0;orthogonalLoop=1;jettySize=auto;html=1;entryX=0.5;entryY=1;entryDx=0;entryDy=0;" edge="1" parent="1" source="wLUPcjS65Iv6JSeXEXH0-33" target="wLUPcjS65Iv6JSeXEXH0-16">
          <mxGeometry relative="1" as="geometry" />
        </mxCell>
        <mxCell id="wLUPcjS65Iv6JSeXEXH0-33" value="Color System" style="rounded=1;whiteSpace=wrap;html=1;" vertex="1" parent="1">
          <mxGeometry x="350" y="670" width="50" height="40" as="geometry" />
        </mxCell>
      </root>
    </mxGraphModel>
  </diagram>
</mxfile>
